<svg xmlns="http://www.w3.org/2000/svg" xmlns:xlink="http://www.w3.org/1999/xlink" id="Capa_1" x="0px" y="0px" viewBox="0 0 1379.25 423.4" style="enable-background:new 0 0 1379.25 423.4;" xml:space="preserve"><style type="text/css">	.st0{fill:#00659D;}	.st1{fill:#8DBA38;}	.st2{fill:#EA8215;}</style><g>	<g>		<g>			<path class="st0" d="M184.25,350.9c0,0,22.07-58.16,17.99-147.9c-2.52-55.42-25.91-111.92-25.91-111.92s68.73,23.03,118.39,79.17    c0,0-7.2,44.62-34.19,92.84S193.6,345.5,184.25,350.9z"></path>		</g>		<g>			<path class="st1" d="M172.73,177.09c0,0-44.26-28.07-99.68-11.88c0,0,13.96,110.17,111.2,185.69    C184.25,350.9,201.73,261.33,172.73,177.09z"></path>		</g>		<g>			<path class="st2" d="M168.32,163.63c0,0-13.56-44.08-43.66-86.04c0,0-19.5-4.66-54.68-5.09c0,0-4.24,28.82-0.42,64.85    C69.56,137.35,117.88,125.48,168.32,163.63z"></path>		</g>	</g>	<g>		<path class="st0" d="M376.7,181.48v75.39h16.06v11.83h-46.43v-11.83h16.5v-75.39h-16.5v-11.83h46.43v11.83H376.7z"></path>		<path class="st0" d="M478.45,265.54c-2.74,2.54-7,3.42-11.03,3.42c-8.49,0-14.23-6.49-14.23-14.98c0-0.13,0.03-0.25,0.03-0.38   l-0.41-23.3v-4.06c0.3-7.72-3.07-14.65-12.88-14.76c-12.37-0.12-19.81,10.19-20.27,26.42h-0.06c-0.01-0.01-0.02,29.69-0.02,29.69   h-12.65l0.24-51.96c-0.09-3.24-2.94-4.59-5.45-4.46c-0.9,0.04-2.07,0.36-3.44,1.01l-4.01-8.43c3.21-2.33,6.6-3.53,10.52-3.61   c6.95-0.13,11.12,3.18,14.12,9.73c5.9-7.19,14.12-10.9,24.59-10.58c13.61,0.41,22.51,9.91,22.39,28.33   c0,0.14-0.03,11.05-0.03,11.05c0.01-0.01,0.02-0.01,0.04-0.01v14.43c0,2.78,1.77,4.77,4.55,4.83c1.31,0.02,2.79-0.64,4.22-1.13   L478.45,265.54z"></path>		<path class="st0" d="M567.25,265.54c-2.74,2.54-7,3.42-11.03,3.42c-8.49,0-14.23-6.49-14.23-14.98c0-0.13,0.03-0.25,0.03-0.38   l-0.41-23.3v-4.06c0.3-7.72-3.07-14.65-12.88-14.76c-12.37-0.12-19.81,10.19-20.27,26.42h-0.06c-0.01-0.01-0.02,29.69-0.02,29.69   h-12.65l0.24-51.96c-0.09-3.24-2.94-4.59-5.45-4.46c-0.9,0.04-2.07,0.36-3.44,1.01l-4.01-8.43c3.21-2.33,6.6-3.53,10.52-3.61   c6.95-0.13,11.12,3.18,14.12,9.73c5.9-7.19,14.12-10.9,24.59-10.58c13.61,0.41,22.51,9.91,22.39,28.33   c0,0.14-0.03,11.05-0.03,11.05c0.01-0.01,0.02-0.01,0.04-0.01v14.43c0,2.78,1.77,4.77,4.55,4.83c1.31,0.02,2.79-0.64,4.22-1.13   L567.25,265.54z"></path>		<path class="st0" d="M643.18,234.37c0,20.15-15.96,34.8-35.72,34.8c-19.76,0-35.59-14.65-35.59-34.8   c0-20.02,15.83-34.54,35.59-34.54C627.22,199.82,643.18,214.34,643.18,234.37z M630.23,234.37c0-13.74-10.2-23.55-22.76-23.55   c-12.43,0-22.64,9.81-22.64,23.55c0,13.87,10.21,23.81,22.64,23.81C620.03,258.18,630.23,248.23,630.23,234.37z"></path>		<path class="st0" d="M716.93,201.02l-28.35,67.41h-12.55l-28.35-67.41h13.54l21.08,51.94l21.09-51.94H716.93z"></path>		<path class="st0" d="M789.48,265.34c-2.74,2.54-7,3.42-11.03,3.42c-5.61,0-9.98-2.87-12.32-7.25c-2.66,2.57-7.15,5.56-13.72,6.81   c-9.93,1.88-21.65-0.4-26.91-9.04c-4.79-7.85-4.67-22.54,9.03-28.3c13.9-5.84,29.31-0.89,29.31-0.89v-4.06   c0.3-7.72-2.75-14.33-12.52-15.22c-7.47-0.68-13.82,1-19.27,3.89l-4.76-9.73c7.43-4.32,18.59-6.82,28.19-5.74   c13.53,1.52,21.58,9.77,21.46,28.19c0,0.14-0.03,11.05-0.03,11.05c0.01,0,0.03-0.01,0.04-0.01v14.43c0,2.79,1.77,4.77,4.55,4.83   c1.31,0.03,2.79-0.63,4.22-1.12L789.48,265.34z M764.22,251.44l-0.21-11.83c-5.27-1.18-17.69-3.28-24.31,1.41   c-8.45,6-3.07,14,3.18,15.88C748.69,258.66,758.47,256.6,764.22,251.44z"></path>		<path class="st0" d="M872.77,181.91c-13.06-1.43-22.6,5.51-21.01,16.81c1.6,11.3,15.5,11.88,32.74,18.26   c17.24,6.37,19.85,23.47,16.95,33.04c-3.2,10.58-11.44,19.42-30.71,19.7c-19.27,0.29-30.43-7.24-30.43-7.24V247.4   c2.17,2.61,15.36,10.43,28.83,10.43c13.48,0,19.99-6.38,20.14-16.37c0.14-9.99-9.71-12.89-20.72-16.08   c-11.01-3.19-23.42-7.32-27.48-15.87c-4.06-8.55-6.27-29.92,15.17-37.6c21.44-7.68,42.02,5.22,42.02,5.22l-5.07,11.01   C893.2,188.14,884.66,183.21,872.77,181.91z"></path>		<path class="st0" d="M968.22,251.03l0.08,0.45v13.12c-5.64,3.39-12.28,5.37-19.43,5.37c-20.31,0-36.78-15.83-36.78-35.35   s16.47-35.35,36.78-35.35c7.35,0,14.05,2.15,19.47,6.43l-4.14,8.58c-4.09-2.65-9.78-3.89-15.43-3.57   c-14.97,0.83-24.48,10.98-24.48,23.96c0,12.98,10.27,23.5,25.27,23.5C957.43,258.16,963.82,255.43,968.22,251.03z"></path>		<path class="st0" d="M1052.98,265.72c-2.74,2.54-7,3.42-11.03,3.42c-8.49,0-14.23-6.49-14.23-14.98c0-0.13,0.03-0.25,0.03-0.38   l-0.41-23.3v-4.06c0.3-7.72-3.07-14.65-12.88-14.76c-12.37-0.12-19.81,10.19-20.27,26.42h-0.06c-0.01-0.01-0.02,29.69-0.02,29.69   h-12.65l0.23-51.31l0.01-38.57c0-4.38-2.94-5.56-5.45-5.43c-0.9,0.05-2.45,0.33-3.82,0.98l-4.19-8.24   c3.21-2.33,7.15-3.19,11.07-3.26c6.74-0.12,12.66,3.86,13.83,11.1c0.03,0.22,0.19,36.82,0.28,37.03   c5.9-7.19,14.12-10.9,24.59-10.58c13.61,0.41,22.51,9.91,22.39,28.33c0,0.14-0.03,11.05-0.03,11.05c0.01-0.01,0.02-0.01,0.04-0.01   v14.43c0,2.78,1.77,4.77,4.55,4.83c1.31,0.02,2.79-0.64,4.22-1.12L1052.98,265.72z"></path>		<path class="st0" d="M1128.79,234.37c0,20.15-15.96,34.8-35.72,34.8c-19.76,0-35.59-14.65-35.59-34.8   c0-20.02,15.83-34.54,35.59-34.54C1112.83,199.82,1128.79,214.34,1128.79,234.37z M1115.84,234.37c0-13.74-10.2-23.55-22.76-23.55   c-12.43,0-22.64,9.81-22.64,23.55c0,13.87,10.21,23.81,22.64,23.81C1105.64,258.18,1115.84,248.23,1115.84,234.37z"></path>		<path class="st0" d="M1210.23,234.37c0,20.15-15.96,34.8-35.72,34.8c-19.76,0-35.59-14.65-35.59-34.8   c0-20.02,15.83-34.54,35.59-34.54C1194.27,199.82,1210.23,214.34,1210.23,234.37z M1197.28,234.37c0-13.74-10.2-23.55-22.76-23.55   c-12.43,0-22.64,9.81-22.64,23.55c0,13.87,10.21,23.81,22.64,23.81C1187.08,258.18,1197.28,248.23,1197.28,234.37z"></path>		<path class="st0" d="M1247.67,264.14c-2.74,2.54-6.56,3.47-10.59,3.47c-8.49,0-13.8-6.61-14.06-15.1c0-0.01,0.26-37.63,0.26-37.63   l0.01-38.57c0-4.39-2.94-5.56-5.45-5.43c-0.9,0.05-2.45,0.33-3.82,0.98l-4.19-8.24c3.21-2.33,7.15-3.19,11.07-3.26   c6.74-0.12,13.43,3.94,13.83,11.64c0.01,0.05,0.03,4.16,0.06,10.6l0.09,69.07c0,2.79,2.03,4.62,4.8,4.86   c0.99,0.09,2.79-0.36,4.22-0.85L1247.67,264.14z"></path>		<path class="st0" d="M1309.5,256.3c-3.67,6.48-8.88,12.82-25.54,13c-16.65,0.19-25.66-5.32-25.66-5.32l-0.04-13.17   c1.88,1.71,13.27,7.37,24.92,7.37c11.65,0,14.61-4.37,15.09-8.04c0.95-7.33-7.92-9.1-17.15-10.29   c-9.66-1.24-17.26-3.78-21.99-9.11c-5.22-5.87-6.08-24.15,12.42-29.32c19.04-5.32,35.71,3.55,35.71,3.55l-4.73,10.64   c0,0-4.75-3.4-15.01-4.26c-11.29-0.94-20.26,1.48-18.92,8.87c1.66,9.1,12.88,6.61,27.9,10.29   C1312.46,234.43,1313.05,250.03,1309.5,256.3z"></path>	</g></g></svg>